<?xml version="1.0" standalone="no"?>
<!DOCTYPE svg PUBLIC "-//W3C//DTD SVG 20010904//EN"
 "http://www.w3.org/TR/2001/REC-SVG-20010904/DTD/svg10.dtd">
<svg version="1.0" xmlns="http://www.w3.org/2000/svg"
 width="480.000000pt" height="480.000000pt" viewBox="0 0 480.000000 480.000000"
 preserveAspectRatio="xMidYMid meet">
<metadata>
Created by potrace 1.14, written by Peter Selinger 2001-2017
</metadata>
<g transform="translate(0.000000,480.000000) scale(0.100000,-0.100000)"
fill="#000000" stroke="none">
<path d="M78 2338 c-2 -1228 -2 -2236 0 -2240 2 -5 1011 -8 2243 -8 1231 0
2239 3 2239 8 0 4 1 84 2 177 l2 170 -2062 3 -2062 2 -1 23 c-1 12 -3 935 -5
2052 -1 1117 -3 2033 -3 2038 -1 4 -80 7 -176 7 l-175 0 -2 -2232z"/>
<path d="M4299 4490 c-14 -20 -23 -20 -1584 -21 -1355 -1 -1579 -3 -1635 -16
-36 -8 -71 -15 -77 -15 -7 -1 -13 -5 -13 -9 0 -4 -14 -10 -30 -14 -17 -4 -30
-11 -30 -16 0 -5 -4 -8 -8 -6 -14 4 -103 -58 -161 -112 -30 -28 -51 -51 -47
-51 3 0 -2 -9 -12 -19 -34 -38 -41 -49 -35 -55 4 -3 2 -6 -4 -6 -11 0 -66
-121 -66 -145 0 -8 -4 -15 -8 -15 -4 0 -8 -8 -7 -17 0 -10 -3 -31 -7 -48 -9
-40 -10 -128 -2 -190 6 -48 9 -64 24 -102 3 -10 7 -22 7 -28 4 -23 39 -95 47
-95 5 0 9 -9 9 -20 0 -11 4 -20 9 -20 5 0 12 -8 15 -18 3 -10 29 -40 56 -67
28 -28 60 -60 72 -72 12 -13 28 -23 35 -23 7 0 13 -4 13 -10 0 -5 5 -10 11
-10 6 0 23 -8 37 -18 31 -21 135 -60 184 -69 18 -3 149 -7 291 -8 142 -2 260
-5 262 -7 3 -2 -9 -24 -25 -48 -17 -25 -30 -50 -30 -56 0 -7 -7 -14 -15 -18
-8 -3 -15 -14 -15 -25 0 -11 -3 -21 -7 -23 -9 -3 -63 -84 -63 -93 0 -9 -54
-89 -65 -97 -5 -4 -6 -8 -1 -8 5 0 2 -8 -6 -17 -8 -10 -46 -70 -83 -133 -38
-63 -78 -128 -89 -145 -12 -16 -21 -32 -21 -35 0 -4 -60 -103 -72 -119 -2 -3
-25 16 -51 42 -26 26 -52 47 -58 47 -5 0 -41 -33 -79 -72 -37 -40 -130 -136
-206 -213 l-139 -141 58 -57 58 -58 149 146 c82 80 155 145 163 145 12 0 11
-5 -6 -22 -11 -13 -22 -27 -23 -33 -1 -5 -7 -19 -14 -30 -70 -111 -126 -206
-125 -211 1 -4 -2 -10 -7 -13 -8 -5 -108 -164 -123 -196 -3 -5 -17 -29 -32
-52 -16 -24 -28 -47 -28 -53 0 -5 -4 -10 -8 -10 -7 0 -63 -102 -63 -115 0 -2
-7 -21 -15 -42 -17 -38 -19 -50 -30 -118 -10 -67 -4 -218 10 -232 3 -3 6 -15
6 -25 0 -17 58 -157 70 -168 3 -3 18 -23 34 -45 42 -57 162 -165 174 -157 3 2
8 0 11 -5 9 -12 48 -33 95 -50 120 -43 78 -42 1426 -42 1312 -1 1310 -1 1415
33 104 33 209 106 287 197 50 60 111 163 101 173 -4 3 0 6 7 6 7 0 10 3 7 7
-4 3 -3 11 2 17 5 6 12 25 15 41 3 17 8 46 12 65 15 77 8 201 -17 293 -14 54
-68 167 -79 167 -6 0 -10 6 -10 13 0 7 -16 30 -35 51 -19 21 -35 41 -35 45 0
3 87 92 192 198 l193 193 -112 112 -113 113 -229 -229 c-163 -162 -233 -226
-243 -220 -21 13 -48 15 -323 18 -143 2 -262 4 -264 5 -2 1 2 8 9 16 7 8 9 15
5 15 -4 0 4 15 19 34 14 19 26 39 26 44 0 6 4 12 8 14 5 2 15 15 23 30 29 54
131 218 140 224 5 3 9 14 9 25 0 10 5 19 10 19 6 0 15 10 21 23 17 36 42 79
75 127 17 25 33 50 35 55 9 23 153 250 163 257 6 4 8 8 3 8 -6 0 32 65 85 142
10 15 18 30 18 34 0 4 11 22 25 40 14 18 25 37 25 43 0 5 6 16 13 23 11 11 83
128 127 206 8 14 23 35 32 46 10 10 15 23 12 27 -2 4 1 11 8 16 7 4 18 17 24
28 29 53 40 70 46 75 3 3 8 12 10 20 2 8 11 23 21 34 9 11 17 26 17 33 0 7 3
13 8 13 4 0 20 25 37 55 16 30 33 55 37 55 4 0 8 5 8 10 0 6 16 36 35 66 19
30 35 59 35 64 0 6 3 10 8 10 4 0 16 17 27 38 11 20 32 56 48 78 15 23 27 47
27 53 0 6 4 11 9 11 5 0 14 13 21 29 6 16 19 37 28 47 9 11 25 35 35 54 9 19
40 71 68 115 27 44 64 103 80 130 17 28 40 65 51 83 l20 32 -195 0 c-181 0
-195 1 -212 20 -23 25 -39 25 -56 0z"/>
</g>
</svg>
